<?xml version="1.0" encoding="UTF-8"?>
<svg width="24px" height="24px" viewBox="0 0 24 24" version="1.1" xmlns="http://www.w3.org/2000/svg" xmlns:xlink="http://www.w3.org/1999/xlink">
    <title>切片</title>
    <g id="设计稿" stroke="none" stroke-width="1" fill="none" fill-rule="evenodd">
        <g id="编组-18">
            <rect id="矩形备份-4" x="0" y="0" width="24" height="24"></rect>
            <path d="M12,20.1427559 C16.0237889,20.1427559 19.2857143,16.8945907 19.2857143,12.887776 C19.2857143,8.88096126 16.0237889,5.63279613 12,5.63279613 C10.858816,5.63279613 9.77891194,5.89405982 8.81731894,6.35979663 L6.51033634,5.59460474 C6.27163725,5.51543179 6.01395104,5.64475329 5.9347781,5.88345238 C5.90762749,5.96530894 5.9042807,6.05319274 5.92512717,6.13687712 L6.43910745,8.20015813 L6.43910745,8.20015813 C5.36316346,9.4645327 4.71428571,11.1006972 4.71428571,12.887776 C4.71428571,16.8945907 7.97621111,20.1427559 12,20.1427559 Z" id="形状" stroke="#1C9EFF" stroke-width="1.5" stroke-linecap="round" stroke-linejoin="round"></path>
            <g id="编组-23" transform="translate(10.135317, 10.579347)" fill="#1C9EFF" fill-rule="nonzero" stroke="#1C9EFF" stroke-width="0.171428571">
                <path d="M4.82142857,0 C5.23564213,0 5.57142857,0.33436747 5.57142857,0.746830647 L5.57142857,1.74260484 C5.57142857,2.15506802 5.23564213,2.48943549 4.82142857,2.48943549 C4.40721501,2.48943549 4.07142857,2.15506802 4.07142857,1.74260484 L4.07142857,0.746830647 C4.07142857,0.33436747 4.40721501,0 4.82142857,0 L4.82142857,0 Z" id="路径"></path>
                <path d="M0.75,0 C1.16421356,0 1.5,0.33436747 1.5,0.746830647 L1.5,1.74260484 C1.5,2.15506802 1.16421356,2.48943549 0.75,2.48943549 C0.335786438,2.48943549 0,2.15506802 0,1.74260484 L0,0.746830647 C0,0.33436747 0.335786438,0 0.75,0 L0.75,0 Z" id="路径"></path>
            </g>
        </g>
    </g>
</svg>