<?xml version="1.0" encoding="UTF-8"?>
<svg width="24px" height="24px" viewBox="0 0 24 24" version="1.1" xmlns="http://www.w3.org/2000/svg" xmlns:xlink="http://www.w3.org/1999/xlink">
    <title>切片</title>
    <g id="设计稿" stroke="none" stroke-width="1" fill="none" fill-rule="evenodd">
        <g id="icon">
            <rect id="矩形" x="0" y="0" width="24" height="24"></rect>
            <path d="M16.1561517,4.39285714 C17.2086298,4.39285714 18.14494,5.06127672 18.4867519,6.0565139 L19.7497537,9.73107761 C20.0352973,10.5672224 19.5923202,11.4770606 18.7580336,11.7679885 L18.6691579,11.7948571 L18.6696429,17.1428571 C18.6696429,18.9772315 17.1825886,20.4642857 15.3482143,20.4642857 L8.65178571,20.4642857 C6.81741137,20.4642857 5.33035714,18.9772315 5.33035714,17.1428571 L5.33028364,11.8907114 C5.30261597,11.879326 5.27495478,11.8676273 5.24730068,11.8556149 L5.0605437,11.7696624 C4.31776591,11.4089119 3.96924123,10.5439782 4.25421438,9.76949834 L5.63554788,6.00761643 C5.99178757,5.03759069 6.91540117,4.39285714 7.94877267,4.39285714 L16.1561517,4.39285714 Z M14.676,11.172 L14.5806215,11.2426545 C12.8933935,12.4404543 11.1648721,12.439277 9.55970987,11.2291976 L9.55028571,11.2217143 L9.51871872,11.2464942 C8.64154131,11.8863833 7.73850952,12.2094368 6.83078143,12.2030737 L6.83035714,17.1428571 C6.83035714,18.1488044 7.64583849,18.9642857 8.65178571,18.9642857 L15.3482143,18.9642857 C16.3541615,18.9642857 17.1696429,18.1488044 17.1696429,17.1428571 L17.1698821,11.9961896 C16.4054074,11.957469 15.6258422,11.7117875 14.8382472,11.2671292 L14.676,11.172 Z M16.1561517,5.89285714 L7.94877267,5.89285714 C7.54440991,5.89285714 7.18299589,6.14514418 7.0436104,6.52468502 L5.66211588,10.287005 C5.64310609,10.3386685 5.66634107,10.3963307 5.71612484,10.4205096 C6.81341109,10.9539703 7.88328365,10.7372154 9.06099887,9.689519 C9.35017252,9.43226988 9.78760584,9.4373117 10.0707734,9.70115757 C11.4158101,10.9544168 12.6733804,10.9544168 14.1382869,9.68338745 C14.3976292,9.45836851 14.7766567,9.4381968 15.0584173,9.63441843 C16.177464,10.4137367 17.1706054,10.6552512 18.0844365,10.4077338 L18.2551579,10.3548571 L18.2661591,10.3517244 L18.2571579,10.3538571 L18.2551579,10.3548571 L18.2571579,10.3538571 C18.3086255,10.3361181 18.3364249,10.2941951 18.3362657,10.2502262 L18.3307267,10.2172466 L17.0681485,6.54391967 C16.9343732,6.15441263 16.5679909,5.89285714 16.1561517,5.89285714 Z" id="形状结合" fill="#11192D" fill-rule="nonzero"></path>
        </g>
    </g>
</svg>